<svg xmlns="http://www.w3.org/2000/svg" version="1.1" xmlns:xlink="http://www.w3.org/1999/xlink" xmlns:svgjs="http://svgjs.dev/svgjs" width="1000" height="1000" viewBox="0 0 1000 1000"><rect width="1000" height="1000" fill="#ffffff"></rect><g transform="matrix(0.7,0,0,0.7,149.84897959183667,150.19913061224486)"><svg viewBox="0 0 343 343" data-background-color="#ffffff" preserveAspectRatio="xMidYMid meet" height="999" width="1000" xmlns="http://www.w3.org/2000/svg" xmlns:xlink="http://www.w3.org/1999/xlink"><g id="tight-bounds" transform="matrix(1,0,0,1,0.0740000000000407,0.07400000000001228)"><svg viewBox="0 0 342.85155851775386 342.85155851775386" height="342.85155851775386" width="342.85155851775386"><g><svg></svg></g><g><svg viewBox="0 0 342.85155851775386 342.85155851775386" height="342.85155851775386" width="342.85155851775386"><g><path d="M0 171.426c0-94.676 76.75-171.426 171.426-171.426 94.676 0 171.426 76.75 171.426 171.426 0 94.676-76.75 171.426-171.426 171.426-94.676 0-171.426-76.75-171.426-171.426zM171.426 331.506c88.41 0 160.08-71.67 160.08-160.08 0-88.41-71.67-160.08-160.08-160.08-88.41 0-160.08 71.67-160.08 160.08 0 88.41 71.67 160.08 160.08 160.08z" data-fill-palette-color="tertiary" fill="#ed3b43" stroke="transparent"></path><ellipse rx="164.56874808852186" ry="164.56874808852186" cx="171.42577925887693" cy="171.42577925887693" fill="#ed3b43" stroke="transparent" stroke-width="0" fill-opacity="1" data-fill-palette-color="tertiary"></ellipse></g><g transform="matrix(1,0,0,1,64.84655864529837,108.52067434361135)"><svg viewBox="0 0 213.1584412271571 125.81020983053118" height="125.81020983053118" width="213.1584412271571"><g><svg viewBox="0 0 213.1584412271571 125.81020983053118" height="125.81020983053118" width="213.1584412271571"><g><svg viewBox="0 0 213.1584412271571 125.81020983053118" height="125.81020983053118" width="213.1584412271571"><g><svg viewBox="0 0 213.1584412271571 125.81020983053118" height="125.81020983053118" width="213.1584412271571"><g id="textblocktransform"><svg viewBox="0 0 213.1584412271571 125.81020983053118" height="125.81020983053118" width="213.1584412271571" id="textblock"><g><svg viewBox="0 0 213.1584412271571 125.81020983053118" height="125.81020983053118" width="213.1584412271571"><g transform="matrix(1,0,0,1,0,0)"><svg width="213.1584412271571" viewBox="4 -35 59.29999923706055 35" height="125.81020983053118" data-palette-color="#ffffff"><path d="M8.75 0L4 0 4-35 9.15-35 26.4-8.8 26.4-35 31.2-35 31.2 0 27.15 0 8.75-27.65 8.75 0ZM63.3 0L57.4 0 44.45-18.55 57.4-35 63.15-35 49.85-18.65 63.3 0ZM43.95 0L39.2 0 39.2-35 43.95-35 43.95 0Z" opacity="1" transform="matrix(1,0,0,1,0,0)" fill="#ffffff" class="undefined-text-0" data-fill-palette-color="quaternary" id="text-0"></path></svg></g></svg></g></svg></g></svg></g><g></g></svg></g></svg></g></svg></g></svg></g><defs></defs></svg><rect width="342.85155851775386" height="342.85155851775386" fill="none" stroke="none" visibility="hidden"></rect></g></svg></g></svg>